<svg width="1167" height="1167" viewBox="0 0 1167 1167" fill="none" xmlns="http://www.w3.org/2000/svg">
<path fill-rule="evenodd" clip-rule="evenodd" d="M387.767 1163.28C319.976 1164.77 264.327 1110.01 264.722 1042.21L269.887 156.859C269.887 83.7649 348.954 14 415.652 14H423.764H488.962H733.073C807.873 14 872.567 30.8982 927.151 64.6945C981.735 98.4909 1024.19 145.806 1054.51 206.639C1084.84 266.346 1100 336.755 1100 417.867C1100 496.725 1084.84 567.134 1054.51 629.094C1024.19 689.927 981.735 737.806 927.151 772.728C872.567 806.525 807.873 823.423 733.073 823.423H509.381L505.514 1045.01C504.385 1109.65 452.405 1161.87 387.767 1163.28V1163.28Z" fill="#31AFAD" style="fill:#31AFAD;fill:color(display-p3 0.1922 0.6863 0.6784);fill-opacity:1;"/>
<path d="M647.874 590.836C713.013 590.836 762.361 573.457 795.918 538.699C830.461 502.888 847.733 453.385 847.733 390.189C847.733 326.993 830.461 278.543 795.918 244.838C762.361 211.134 714 194.282 650.835 194.282H449.496V590.836H647.874Z" fill="#6FCCCA" style="fill:#6FCCCA;fill:color(display-p3 0.4353 0.8000 0.7922);fill-opacity:1;"/>
<path fill-rule="evenodd" clip-rule="evenodd" d="M360.14 1121.93C305.022 1122.56 260 1078.06 260 1022.93L260 137.913C260 69.5738 312.793 14.1736 377.917 14.1736H385.837H449.496H687.846C760.88 14.1736 824.046 29.9726 877.342 61.5705C930.637 93.1684 972.089 137.406 1001.7 194.282C1031.31 250.105 1046.11 315.934 1046.11 391.769C1046.11 465.497 1031.31 531.326 1001.7 589.256C972.089 646.132 930.637 690.896 877.342 723.547C824.046 755.145 760.88 770.944 687.846 770.944L458.002 768.665V1022.93C458.002 1077.17 414.369 1121.3 360.14 1121.93V1121.93ZM795.918 538.699C762.361 573.457 713.013 590.836 647.874 590.836H449.496V194.282H650.835C714 194.282 762.361 211.134 795.918 244.838C830.461 278.543 847.733 326.993 847.733 390.189C847.733 453.385 830.461 502.888 795.918 538.699Z" fill="#6FCCCA" style="fill:#6FCCCA;fill:color(display-p3 0.4353 0.8000 0.7922);fill-opacity:1;"/>
<path d="M777.482 262.541L669.808 414.257C660.79 426.281 643.54 428.296 631.994 418.674L580.382 375.664C555.187 354.668 517.92 357.265 495.88 381.552C473.94 405.729 474.84 442.871 497.926 465.957L546.464 514.495C603.138 571.169 696.659 565.35 745.87 502.086L871 333.973C891.848 307.171 885.747 268.334 857.684 249.216C831.686 231.505 796.357 237.375 777.482 262.541Z" fill="#31AFAD" style="fill:#31AFAD;fill:color(display-p3 0.1922 0.6863 0.6784);fill-opacity:1;"/>
<path d="M746.178 261.578L629.296 423.424C620.968 434.956 605.037 436.888 594.374 427.66L546.708 386.409C523.439 366.271 489.021 368.761 468.666 392.056C448.403 415.244 449.234 450.868 470.555 473.01L515.382 519.564C567.724 573.922 654.095 568.34 699.543 507.662L832.546 330.091C851.801 304.384 846.166 267.135 820.249 248.799C796.239 231.812 763.61 237.441 746.178 261.578Z" fill="white" style="fill:white;fill-opacity:1;"/>
</svg>
